<?xml version="1.0" encoding="UTF-8" standalone="no"?>
<!DOCTYPE svg PUBLIC "-//W3C//DTD SVG 1.1//EN"
 "http://www.w3.org/Graphics/SVG/1.1/DTD/svg11.dtd">
<!-- Generated by graphviz version 14.0.2 (0)
 -->
<!-- Title: IServicoHospede Pages: 1 -->
<svg width="113pt" height="292pt"
 viewBox="0.00 0.00 113.00 292.00" xmlns="http://www.w3.org/2000/svg" xmlns:xlink="http://www.w3.org/1999/xlink">
<g id="graph0" class="graph" transform="scale(1 1) rotate(0) translate(4 288)">
<title>IServicoHospede</title>
<!-- Node1 -->
<g id="Node000001" class="node">
<title>Node1</title>
<g id="a_Node000001"><a xlink:title="Interface para os serviços relacionados à entidade Hóspede.">
<polygon fill="#999999" stroke="none" points="105,-284 0,-284 0,-152 105,-152 105,-284"/>
<text xml:space="preserve" text-anchor="start" x="15" y="-270.5" font-family="Helvetica,sans-Serif" font-size="10.00">IServicoHospede</text>
<text xml:space="preserve" text-anchor="start" x="51" y="-254.5" font-family="Helvetica,sans-Serif" font-size="10.00"> </text>
<text xml:space="preserve" text-anchor="start" x="4" y="-238.5" font-family="Helvetica,sans-Serif" font-size="10.00">+</text>
<text xml:space="preserve" text-anchor="start" x="14" y="-238.5" font-family="Helvetica,sans-Serif" font-size="10.00">cadastrar()</text>
<text xml:space="preserve" text-anchor="start" x="4" y="-222.5" font-family="Helvetica,sans-Serif" font-size="10.00">+</text>
<text xml:space="preserve" text-anchor="start" x="14" y="-222.5" font-family="Helvetica,sans-Serif" font-size="10.00">consultar()</text>
<text xml:space="preserve" text-anchor="start" x="4" y="-206.5" font-family="Helvetica,sans-Serif" font-size="10.00">+</text>
<text xml:space="preserve" text-anchor="start" x="14" y="-206.5" font-family="Helvetica,sans-Serif" font-size="10.00">editar()</text>
<text xml:space="preserve" text-anchor="start" x="4" y="-190.5" font-family="Helvetica,sans-Serif" font-size="10.00">+</text>
<text xml:space="preserve" text-anchor="start" x="14" y="-190.5" font-family="Helvetica,sans-Serif" font-size="10.00">descadastrar()</text>
<text xml:space="preserve" text-anchor="start" x="4" y="-174.5" font-family="Helvetica,sans-Serif" font-size="10.00">+</text>
<text xml:space="preserve" text-anchor="start" x="14" y="-174.5" font-family="Helvetica,sans-Serif" font-size="10.00">listar()</text>
<text xml:space="preserve" text-anchor="start" x="4" y="-158.5" font-family="Helvetica,sans-Serif" font-size="10.00">+</text>
<text xml:space="preserve" text-anchor="start" x="14" y="-158.5" font-family="Helvetica,sans-Serif" font-size="10.00">~IServicoHospede()</text>
<polygon fill="#666666" stroke="#666666" points="0,-266 0,-266 105,-266 105,-266 0,-266"/>
<polygon fill="#666666" stroke="#666666" points="0,-250 0,-250 105,-250 105,-250 0,-250"/>
<polygon fill="none" stroke="#666666" points="0,-152 0,-284 105,-284 105,-152 0,-152"/>
</a>
</g>
</g>
<!-- Node2 -->
<g id="Node000002" class="node">
<title>Node2</title>
<g id="a_Node000002"><a xlink:href="classCntrServicoHospede.html" target="_top" xlink:title="Implementação concreta dos serviços de Hóspede.">
<polygon fill="white" stroke="none" points="101.88,-116 3.12,-116 3.12,0 101.88,0 101.88,-116"/>
<text xml:space="preserve" text-anchor="start" x="7.12" y="-102.5" font-family="Helvetica,sans-Serif" font-size="10.00">CntrServicoHospede</text>
<text xml:space="preserve" text-anchor="start" x="51" y="-86.5" font-family="Helvetica,sans-Serif" font-size="10.00"> </text>
<text xml:space="preserve" text-anchor="start" x="11.75" y="-70.5" font-family="Helvetica,sans-Serif" font-size="10.00">+</text>
<text xml:space="preserve" text-anchor="start" x="26.38" y="-70.5" font-family="Helvetica,sans-Serif" font-size="10.00">cadastrar()</text>
<text xml:space="preserve" text-anchor="start" x="11.75" y="-54.5" font-family="Helvetica,sans-Serif" font-size="10.00">+</text>
<text xml:space="preserve" text-anchor="start" x="26.38" y="-54.5" font-family="Helvetica,sans-Serif" font-size="10.00">consultar()</text>
<text xml:space="preserve" text-anchor="start" x="11.75" y="-38.5" font-family="Helvetica,sans-Serif" font-size="10.00">+</text>
<text xml:space="preserve" text-anchor="start" x="26.38" y="-38.5" font-family="Helvetica,sans-Serif" font-size="10.00">editar()</text>
<text xml:space="preserve" text-anchor="start" x="11.75" y="-22.5" font-family="Helvetica,sans-Serif" font-size="10.00">+</text>
<text xml:space="preserve" text-anchor="start" x="26.38" y="-22.5" font-family="Helvetica,sans-Serif" font-size="10.00">descadastrar()</text>
<text xml:space="preserve" text-anchor="start" x="11.75" y="-6.5" font-family="Helvetica,sans-Serif" font-size="10.00">+</text>
<text xml:space="preserve" text-anchor="start" x="26.38" y="-6.5" font-family="Helvetica,sans-Serif" font-size="10.00">listar()</text>
<polygon fill="#666666" stroke="#666666" points="3.12,-98 3.12,-98 101.88,-98 101.88,-98 3.12,-98"/>
<polygon fill="#666666" stroke="#666666" points="3.12,-82 3.12,-82 101.88,-82 101.88,-82 3.12,-82"/>
<polygon fill="none" stroke="#666666" points="3.12,0 3.12,-116 101.88,-116 101.88,0 3.12,0"/>
</a>
</g>
</g>
<!-- Node1&#45;&gt;Node2 -->
<g id="edge1_Node000001_Node000002" class="edge">
<title>Node1&#45;&gt;Node2</title>
<g id="a_edge1_Node000001_Node000002"><a xlink:title=" ">
<path fill="none" stroke="#63b8ff" d="M52.5,-140.84C52.5,-132.4 52.5,-123.91 52.5,-115.77"/>
<polygon fill="none" stroke="#63b8ff" points="49,-140.77 52.5,-150.77 56,-140.77 49,-140.77"/>
</a>
</g>
</g>
</g>
</svg>
