<?xml version="1.0" encoding="UTF-8" standalone="no"?>
<!DOCTYPE svg PUBLIC "-//W3C//DTD SVG 1.1//EN"
 "http://www.w3.org/Graphics/SVG/1.1/DTD/svg11.dtd">
<!-- Generated by graphviz version 14.0.2 (0)
 -->
<!-- Title: src/servicos/servicos.hpp Pages: 1 -->
<svg width="377pt" height="252pt"
 viewBox="0.00 0.00 377.00 252.00" xmlns="http://www.w3.org/2000/svg" xmlns:xlink="http://www.w3.org/1999/xlink">
<g id="graph0" class="graph" transform="scale(1 1) rotate(0) translate(4 248)">
<title>src/servicos/servicos.hpp</title>
<!-- Node1 -->
<g id="Node000001" class="node">
<title>Node1</title>
<g id="a_Node000001"><a xlink:title="Declaração das classes de serviço e contêineres de dados.">
<polygon fill="#999999" stroke="#666666" points="369.25,-244 241.5,-244 241.5,-224 369.25,-224 369.25,-244"/>
<text xml:space="preserve" text-anchor="middle" x="305.38" y="-230.5" font-family="Helvetica,sans-Serif" font-size="10.00">src/servicos/servicos.hpp</text>
</a>
</g>
</g>
<!-- Node2 -->
<g id="Node000002" class="node">
<title>Node2</title>
<g id="a_Node000002"><a xlink:href="interfaces_8hpp.html" target="_top" xlink:title="Declaração das interfaces para os módulos de serviço.">
<polygon fill="white" stroke="#666666" points="309.62,-188 223.12,-188 223.12,-168 309.62,-168 309.62,-188"/>
<text xml:space="preserve" text-anchor="middle" x="266.38" y="-174.5" font-family="Helvetica,sans-Serif" font-size="10.00">../interfaces.hpp</text>
</a>
</g>
</g>
<!-- Node1&#45;&gt;Node2 -->
<g id="edge1_Node000001_Node000002" class="edge">
<title>Node1&#45;&gt;Node2</title>
<g id="a_edge1_Node000001_Node000002"><a xlink:title=" ">
<path fill="none" stroke="#63b8ff" d="M298.58,-223.59C293.38,-216.39 286.04,-206.23 279.69,-197.43"/>
<polygon fill="#63b8ff" stroke="#63b8ff" points="282.67,-195.58 273.98,-189.53 276.99,-199.68 282.67,-195.58"/>
</a>
</g>
</g>
<!-- Node8 -->
<g id="Node000008" class="node">
<title>Node8</title>
<g id="a_Node000008"><a xlink:title=" ">
<polygon fill="#e0e0e0" stroke="#999999" points="362.75,-188 328,-188 328,-168 362.75,-168 362.75,-188"/>
<text xml:space="preserve" text-anchor="middle" x="345.38" y="-174.5" font-family="Helvetica,sans-Serif" font-size="10.00">map</text>
</a>
</g>
</g>
<!-- Node1&#45;&gt;Node8 -->
<g id="edge9_Node000001_Node000008" class="edge">
<title>Node1&#45;&gt;Node8</title>
<g id="a_edge9_Node000001_Node000008"><a xlink:title=" ">
<path fill="none" stroke="#63b8ff" d="M312.34,-223.59C317.68,-216.39 325.2,-206.23 331.72,-197.43"/>
<polygon fill="#63b8ff" stroke="#63b8ff" points="334.45,-199.63 337.59,-189.51 328.82,-195.47 334.45,-199.63"/>
</a>
</g>
</g>
<!-- Node3 -->
<g id="Node000003" class="node">
<title>Node3</title>
<g id="a_Node000003"><a xlink:href="entidades_8hpp.html" target="_top" xlink:title="Declares entity classes that aggregate validated domain objects.">
<polygon fill="white" stroke="#666666" points="226.25,-132 104.5,-132 104.5,-112 226.25,-112 226.25,-132"/>
<text xml:space="preserve" text-anchor="middle" x="165.38" y="-118.5" font-family="Helvetica,sans-Serif" font-size="10.00">entidades/entidades.hpp</text>
</a>
</g>
</g>
<!-- Node2&#45;&gt;Node3 -->
<g id="edge2_Node000002_Node000003" class="edge">
<title>Node2&#45;&gt;Node3</title>
<g id="a_edge2_Node000002_Node000003"><a xlink:title=" ">
<path fill="none" stroke="#63b8ff" d="M248.78,-167.59C233.45,-159.4 210.96,-147.37 193.19,-137.87"/>
<polygon fill="#63b8ff" stroke="#63b8ff" points="194.91,-134.82 184.44,-133.19 191.61,-140.99 194.91,-134.82"/>
</a>
</g>
</g>
<!-- Node5 -->
<g id="Node000005" class="node">
<title>Node5</title>
<g id="a_Node000005"><a xlink:title=" ">
<polygon fill="#e0e0e0" stroke="#999999" points="172.38,-20 132.38,-20 132.38,0 172.38,0 172.38,-20"/>
<text xml:space="preserve" text-anchor="middle" x="152.38" y="-6.5" font-family="Helvetica,sans-Serif" font-size="10.00">string</text>
</a>
</g>
</g>
<!-- Node2&#45;&gt;Node5 -->
<g id="edge8_Node000002_Node000005" class="edge">
<title>Node2&#45;&gt;Node5</title>
<g id="a_edge8_Node000002_Node000005"><a xlink:title=" ">
<path fill="none" stroke="#63b8ff" d="M267.63,-167.71C270.06,-145.85 273.1,-90.4 247.38,-56 232,-35.43 204.82,-23.88 183.47,-17.65"/>
<polygon fill="#63b8ff" stroke="#63b8ff" points="184.64,-14.34 174.08,-15.17 182.85,-21.11 184.64,-14.34"/>
</a>
</g>
</g>
<!-- Node7 -->
<g id="Node000007" class="node">
<title>Node7</title>
<g id="a_Node000007"><a xlink:title=" ">
<polygon fill="#e0e0e0" stroke="#999999" points="322.77,-132 293.98,-132 293.98,-112 322.77,-112 322.77,-132"/>
<text xml:space="preserve" text-anchor="middle" x="308.38" y="-118.5" font-family="Helvetica,sans-Serif" font-size="10.00">list</text>
</a>
</g>
</g>
<!-- Node2&#45;&gt;Node7 -->
<g id="edge7_Node000002_Node000007" class="edge">
<title>Node2&#45;&gt;Node7</title>
<g id="a_edge7_Node000002_Node000007"><a xlink:title=" ">
<path fill="none" stroke="#63b8ff" d="M273.69,-167.59C279.35,-160.32 287.36,-150.02 294.26,-141.15"/>
<polygon fill="#63b8ff" stroke="#63b8ff" points="296.84,-143.54 300.21,-133.49 291.31,-139.24 296.84,-143.54"/>
</a>
</g>
</g>
<!-- Node4 -->
<g id="Node000004" class="node">
<title>Node4</title>
<g id="a_Node000004"><a xlink:href="dominios_8hpp.html" target="_top" xlink:title="Declaração das classes de domínio responsáveis por validação de dados.">
<polygon fill="white" stroke="#666666" points="124.75,-76 0,-76 0,-56 124.75,-56 124.75,-76"/>
<text xml:space="preserve" text-anchor="middle" x="62.38" y="-62.5" font-family="Helvetica,sans-Serif" font-size="10.00">../dominios/dominios.hpp</text>
</a>
</g>
</g>
<!-- Node3&#45;&gt;Node4 -->
<g id="edge3_Node000003_Node000004" class="edge">
<title>Node3&#45;&gt;Node4</title>
<g id="a_edge3_Node000003_Node000004"><a xlink:title=" ">
<path fill="none" stroke="#63b8ff" d="M147.43,-111.59C131.73,-103.36 108.64,-91.26 90.49,-81.74"/>
<polygon fill="#63b8ff" stroke="#63b8ff" points="92.28,-78.73 81.8,-77.18 89.03,-84.93 92.28,-78.73"/>
</a>
</g>
</g>
<!-- Node3&#45;&gt;Node5 -->
<g id="edge6_Node000003_Node000005" class="edge">
<title>Node3&#45;&gt;Node5</title>
<g id="a_edge6_Node000003_Node000005"><a xlink:title=" ">
<path fill="none" stroke="#63b8ff" d="M164.27,-111.62C162.18,-94.01 157.65,-55.59 154.82,-31.65"/>
<polygon fill="#63b8ff" stroke="#63b8ff" points="158.31,-31.38 153.66,-21.86 151.36,-32.2 158.31,-31.38"/>
</a>
</g>
</g>
<!-- Node6 -->
<g id="Node000006" class="node">
<title>Node6</title>
<g id="a_Node000006"><a xlink:title=" ">
<polygon fill="#e0e0e0" stroke="#999999" points="238.75,-76 180,-76 180,-56 238.75,-56 238.75,-76"/>
<text xml:space="preserve" text-anchor="middle" x="209.38" y="-62.5" font-family="Helvetica,sans-Serif" font-size="10.00">stdexcept</text>
</a>
</g>
</g>
<!-- Node3&#45;&gt;Node6 -->
<g id="edge5_Node000003_Node000006" class="edge">
<title>Node3&#45;&gt;Node6</title>
<g id="a_edge5_Node000003_Node000006"><a xlink:title=" ">
<path fill="none" stroke="#63b8ff" d="M173.04,-111.59C178.97,-104.32 187.36,-94.02 194.59,-85.15"/>
<polygon fill="#63b8ff" stroke="#63b8ff" points="197.24,-87.43 200.84,-77.47 191.81,-83.01 197.24,-87.43"/>
</a>
</g>
</g>
<!-- Node4&#45;&gt;Node5 -->
<g id="edge4_Node000004_Node000005" class="edge">
<title>Node4&#45;&gt;Node5</title>
<g id="a_edge4_Node000004_Node000005"><a xlink:title=" ">
<path fill="none" stroke="#63b8ff" d="M78.05,-55.59C91.52,-47.51 111.19,-35.71 126.92,-26.27"/>
<polygon fill="#63b8ff" stroke="#63b8ff" points="128.5,-29.4 135.28,-21.26 124.9,-23.4 128.5,-29.4"/>
</a>
</g>
</g>
</g>
</svg>
